<svg width="136" height="163" viewBox="0 0 136 163" fill="none" xmlns="http://www.w3.org/2000/svg">
<path d="M89.0092 23.3281C88.405 28.1354 87.1602 32.7656 85.2696 37.224V36.9011C85.2696 36.8021 85.2696 36.7031 85.2696 36.6094C85.4519 34.7917 85.3998 32.9896 85.1133 31.1875C84.8894 29.9792 84.5248 28.7865 84.3321 27.5781C84.0092 25.1094 84.2852 22.7031 85.155 20.3646C82.7331 22.1667 80.0404 23.349 77.0769 23.9011C74.4727 24.4063 71.78 24.3542 69.1342 24.6042C60.2123 25.4583 55.8842 31.1302 54.3998 38.4323L54.2331 39.3177L54.1498 39.8333C54.1394 39.9583 54.1394 40.0781 54.1498 40.2031C54.1498 40.3958 54.1498 40.5938 54.0665 40.7917L53.9779 41.6042C53.9779 41.7865 53.9779 41.9531 53.9779 42.1354C53.9779 42.3229 53.9779 42.4167 53.9779 42.5469C53.9779 42.6719 53.9779 42.8958 53.9779 43.0781C53.9779 43.2604 53.9779 43.2865 53.9779 43.3854C53.9779 43.4844 53.9779 43.8646 53.9779 44.1146C53.9779 44.3698 53.9779 44.6667 53.9779 44.9323C53.9779 49.4219 53.754 53.1875 49.4988 55.9531C46.1758 58.125 41.9883 58.2552 38.0248 58.4479C36.3217 58.5208 34.629 58.724 32.9571 59.0677C32.4102 59.1667 31.879 59.3073 31.3581 59.4479L30.9415 59.5729C30.6029 59.6563 30.28 59.7708 29.9571 59.8802C28.4779 60.3802 27.0769 61.0417 25.7592 61.875C25.2175 62.224 24.7227 62.625 24.2748 63.0833L24.0092 63.349C23.4675 63.9636 23.004 64.625 22.6081 65.3438C22.5508 65.4219 22.4988 65.5052 22.4519 65.5938V65.6667L22.2852 65.974C22.1706 66.1823 22.0613 66.4115 21.9623 66.6354C21.8373 66.9011 21.7227 67.1511 21.6133 67.4219C20.905 68.9115 20.3165 70.4427 19.8477 72.0261C19.7644 72.349 19.6915 72.6563 19.6081 72.9792C19.5248 73.3021 19.4831 73.625 19.4258 73.9323C19.2227 75.0573 19.0873 76.1927 19.004 77.3333C19.004 78.3698 19.004 79.3958 19.004 80.4167C19.004 80.6146 19.004 80.7969 19.004 80.9792C19.004 81.1615 19.004 81.2761 19.004 81.4323V82.0781C19.004 82.3958 19.004 82.7188 19.004 83.0417C19.004 83.3646 19.004 83.4219 19.004 83.6042V84.1094C19.004 84.3073 19.004 84.4896 19.0769 84.6719C19.1446 84.8542 19.1602 85.3594 19.2019 85.7136C19.2436 86.0625 19.2852 86.3594 19.3425 86.6823C19.3998 87.0052 19.3425 87.0573 19.4258 87.2552C19.5508 88.1094 19.7071 88.9844 19.8633 89.8386L19.3998 89.4896C18.1029 88.4896 16.9467 87.3594 15.9154 86.0886C14.8894 84.8177 14.0196 83.4479 13.3165 81.974C12.6081 80.5 12.0821 78.9636 11.7331 77.3646C11.3894 75.7656 11.2279 74.1511 11.2592 72.5156C11.4727 64.0938 16.9779 56.4688 23.78 51.4583C26.6654 49.599 29.3998 47.5469 31.9883 45.2969C34.0717 43.1719 35.754 40.7656 37.03 38.0833C38.3633 35.4323 39.3477 32.6563 39.9883 29.7552C40.5352 27.1302 40.7592 24.4479 41.3894 21.8386C41.9779 19.099 42.9571 16.5052 44.3113 14.0521C45.6706 11.6042 47.3529 9.40105 49.3581 7.44793C49.4415 7.36459 49.53 7.28126 49.6238 7.21355C50.1029 6.75001 50.5977 6.31251 51.1238 5.90626L51.4154 5.69793L51.7644 5.41668L52.004 5.2448C53.2019 4.35939 54.4623 3.58334 55.8008 2.9323C58.5456 1.58855 61.4415 0.781261 64.4831 0.515635H64.9727C66.7488 0.395845 68.5144 0.463553 70.2696 0.723969H70.6915C73.754 1.22918 76.5977 2.31251 79.2175 3.98439C81.2383 5.26043 83.03 6.79689 84.5977 8.59897C86.6863 10.9636 88.0821 13.6823 88.8008 16.7552C89.2592 18.9323 89.3269 21.125 89.0092 23.3281Z" fill="#764904"/>
<path d="M85.5509 20.4792L84.879 20.2552C85.2644 19.1667 85.7332 18.1198 86.2801 17.1094L86.9103 17.4427C86.379 18.4219 85.9259 19.4323 85.5509 20.4792Z" fill="#764904"/>
<path d="M66.4884 54.7291C64.8634 54.7343 63.3582 54.3073 61.978 53.4531C60.3686 52.3645 58.9988 51.0312 57.8634 49.4531C56.728 47.8698 55.8999 46.1458 55.379 44.2708L56.0665 44.0468C56.5561 45.8385 57.3426 47.4948 58.4207 49.0052C59.504 50.5208 60.8061 51.802 62.3426 52.8489C63.4832 53.5468 64.728 53.9323 66.0613 54.0104C67.3999 54.0833 68.6759 53.8385 69.8894 53.2708C75.8165 50.4635 86.1394 42.8958 88.6603 22.3854L89.3582 22.4687C86.7957 43.3333 76.2488 51.1198 70.1863 53.9166C69.0144 54.4583 67.7801 54.7291 66.4884 54.7291Z" fill="#764904"/>
<path d="M95.6915 80.125H94.978C94.978 79.5469 94.978 78.974 95.0457 78.3855C95.228 75.8073 95.2019 73.2344 94.9624 70.6615C94.2592 64.7969 91.3634 61.1615 85.5613 58.8698L78.0301 55.8802C75.9259 55.0521 73.7592 54.198 72.8322 52.0365L73.4884 51.7396C74.3009 53.6511 76.2905 54.4063 78.2957 55.2084L85.8426 58.1667C91.9207 60.5677 94.9624 64.3855 95.6499 70.5521C95.8842 73.1615 95.9155 75.7709 95.7332 78.3855C95.7332 79.0417 95.7019 79.5469 95.6915 80.125Z" fill="#764904"/>
<path d="M87.4988 130.323H87.3165C86.5405 130.198 85.7801 130.026 85.0301 129.802H84.8894C84.3478 129.677 83.8009 129.526 83.6603 129.115C83.5822 128.891 83.6186 128.682 83.7697 128.5C83.8947 128.359 84.0509 128.266 84.2332 128.219C84.8634 128.016 85.504 127.854 86.1499 127.74H86.2644C86.6551 127.708 87.0249 127.594 87.3686 127.406C87.4988 127.323 87.5613 127.203 87.5665 127.052C87.2592 126.964 86.9467 126.911 86.629 126.885H86.4051C84.1238 126.578 81.8738 126.75 79.6655 127.406C76.0769 128.719 72.3894 129.12 68.603 128.609C66.4155 128.177 64.5405 127.865 62.8738 127.599C58.1551 127.042 53.6499 125.745 49.3582 123.714C49.2697 123.672 49.2072 123.609 49.1759 123.516C49.1394 123.427 49.1447 123.333 49.1915 123.25C49.2332 123.156 49.2957 123.094 49.3894 123.062C49.4832 123.026 49.5769 123.026 49.6655 123.068C53.8842 125.026 58.3061 126.26 62.9311 126.771C64.5978 127.052 66.4884 127.359 68.6863 127.797C72.3686 128.542 76.3478 127.542 79.3999 126.62C81.6967 125.932 84.0301 125.745 86.4051 126.057H86.629C87.0457 126.083 87.4519 126.161 87.8478 126.297C87.9832 126.339 88.0822 126.427 88.1551 126.547C88.1915 126.661 88.1915 126.771 88.1551 126.885C88.1655 127.307 87.9936 127.635 87.6342 127.865C87.2072 128.13 86.7384 128.276 86.2384 128.318H86.1082C85.4884 128.417 84.8842 128.568 84.2905 128.766C84.4884 128.859 84.7019 128.927 84.9207 128.964H85.103C85.8165 129.156 86.504 129.286 87.3165 129.411H87.4832C87.5822 129.422 87.6603 129.469 87.7228 129.547C87.7801 129.63 87.7957 129.719 87.7749 129.818C87.8322 129.927 87.8269 130.036 87.7697 130.146C87.7072 130.25 87.6186 130.312 87.4988 130.323Z" fill="#764904"/>
<path d="M77.8477 136.766C74.3373 136.292 70.8113 136.026 67.2696 135.969C65.0873 135.88 63.0717 135.813 61.1238 135.656V134.943C62.9988 135.099 65.0613 135.167 67.2436 135.25C70.8113 135.307 74.3634 135.578 77.8998 136.068L77.8477 136.766Z" fill="#764904"/>
<path d="M80.1551 118.083C79.4728 118.083 78.0405 118 77.6655 117.365C77.4936 117.057 77.5249 116.771 77.7644 116.51C77.9155 116.307 78.1186 116.172 78.3634 116.104C78.7019 116.005 79.0249 115.932 79.4415 115.849C80.3113 115.698 81.1915 115.516 82.0457 115.318C82.9051 115.12 84.0926 114.828 85.1134 114.531L76.7957 114.25C76.1603 114.286 75.5665 114.146 75.0197 113.828C74.7644 113.661 74.5822 113.432 74.478 113.146C74.3686 112.859 74.3582 112.568 74.4415 112.271C74.5144 112.068 74.6447 111.906 74.8269 111.792C75.0092 111.677 75.2072 111.63 75.4259 111.651C76.3217 111.651 77.2436 111.651 78.1394 111.651H78.8009C80.2019 111.583 82.7072 111.417 84.6394 111.203L78.254 110.922C77.0457 110.922 75.8322 110.781 74.6238 110.682H74.0249C73.379 110.688 72.7488 110.599 72.1342 110.417C71.7072 110.281 71.4051 110.01 71.2228 109.604C71.0509 109.297 71.0509 108.984 71.2228 108.677C71.5301 108.172 72.3269 108.073 72.9884 108.057C75.5509 107.948 77.8894 107.792 80.1447 107.641C81.8947 107.51 83.6863 107.401 85.6082 107.302C83.9624 106.854 82.2905 106.604 80.5926 106.557H79.3894C78.4363 106.557 77.4676 106.557 76.504 106.391H76.3894C74.4728 106.219 73.5874 105.911 73.3061 105.38C73.1759 105.094 73.2176 104.833 73.4363 104.604C73.7957 104.25 74.228 104.063 74.7384 104.047C80.3686 103.109 86.0197 102.922 91.6967 103.484C90.7176 102.615 89.754 101.714 88.8269 100.818C86.8947 98.9219 86.2801 97.125 87.0769 95.75C87.129 95.6458 87.2124 95.5938 87.3269 95.5781C87.4207 95.5313 87.5144 95.5313 87.6082 95.5781C90.1655 97.4635 92.9311 98.974 95.8999 100.099C98.978 101.25 101.822 102.828 104.431 104.833C107.233 106.714 111.629 106.615 114.723 106.391C114.921 106.427 115.02 106.547 115.02 106.745C115.02 106.948 114.921 107.068 114.723 107.104C111.52 107.344 106.91 107.427 103.942 105.406C101.379 103.427 98.5769 101.875 95.5353 100.76C92.6551 99.6562 89.9572 98.2135 87.4415 96.4219C87.0353 97.8281 88.353 99.3698 89.2488 100.224C90.4259 101.391 91.6707 102.531 92.9311 103.625C93.0561 103.74 93.0822 103.875 93.0197 104.031C92.9519 104.188 92.8322 104.266 92.6655 104.255C86.6759 103.547 80.7124 103.688 74.7644 104.677C74.1603 104.776 73.9676 104.885 73.9103 104.969C73.853 105.057 74.0769 105.406 76.3738 105.615H76.629C77.5665 105.714 78.5353 105.745 79.4311 105.786H80.6342C82.7644 105.818 84.8374 106.188 86.853 106.896C87.129 106.99 87.2436 107.182 87.1967 107.469C87.1499 107.76 86.978 107.906 86.6863 107.906C84.3894 108.005 82.2592 108.156 80.2019 108.297C78.1394 108.438 75.603 108.609 73.0301 108.703C72.103 108.703 71.8947 108.932 71.853 109C71.8113 109.073 71.853 109.182 71.853 109.255C71.9624 109.469 72.129 109.615 72.3582 109.688C72.9103 109.839 73.478 109.911 74.0509 109.911H74.6655C75.8738 110.01 77.0769 110.094 78.2801 110.151C80.3374 110.266 85.2853 110.474 86.9624 110.516C87.2488 110.521 87.4103 110.667 87.4415 110.953C87.478 111.24 87.353 111.422 87.0769 111.5C84.3374 111.932 81.5822 112.203 78.8113 112.312H78.1707C77.2592 112.312 76.3217 112.396 75.3686 112.312C75.1707 112.312 75.103 112.396 75.0874 112.438C75.0509 112.745 75.1499 112.995 75.3947 113.182C75.8322 113.417 76.3009 113.516 76.7957 113.479L86.4624 113.802C86.7332 113.818 86.8947 113.964 86.9363 114.234C86.9728 114.516 86.853 114.693 86.5874 114.771C85.1863 115.219 83.6447 115.625 82.1759 115.964C81.3217 116.161 80.4259 116.344 79.5405 116.51C79.2072 116.563 78.8738 116.641 78.5457 116.734C78.4572 116.76 78.379 116.802 78.3061 116.859V116.958C78.4467 117.214 79.9311 117.365 80.4676 117.312C83.3738 116.911 86.2957 116.76 89.2332 116.849C90.1134 116.849 91.0144 116.99 91.879 117.073C93.0978 117.182 94.3582 117.312 95.5926 117.312C96.353 117.307 97.1082 117.266 97.8634 117.182C98.4311 117.115 98.9988 117.083 99.5717 117.089C100.431 117.089 101.238 116.88 101.994 116.469C102.082 116.432 102.176 116.432 102.264 116.469C102.358 116.505 102.421 116.573 102.457 116.667C102.499 116.755 102.504 116.844 102.468 116.938C102.431 117.031 102.363 117.094 102.275 117.13C101.431 117.578 100.535 117.797 99.5822 117.786C99.1915 117.786 98.728 117.786 97.9311 117.885C97.1551 117.979 96.3738 118.026 95.5926 118.026C94.3269 118.005 93.0665 117.922 91.8113 117.776C90.9572 117.688 90.0717 117.604 89.2072 117.562C86.2957 117.495 83.4051 117.661 80.5197 118.068L80.1551 118.083Z" fill="#764904"/>
<path d="M49.4571 123.698C49.3686 123.698 49.2853 123.672 49.2175 123.615C47.53 122.094 46.2488 120.281 45.379 118.182C42.9988 113.323 41.2905 108.234 40.254 102.922C39.2175 97.6041 38.8946 92.25 39.2748 86.8489C39.2748 86.7448 39.3113 86.6614 39.3842 86.5937C39.4623 86.526 39.5509 86.5 39.6498 86.5104C39.8842 86.5312 39.9988 86.6562 39.9884 86.8906C39.6082 92.2291 39.9259 97.526 40.9519 102.776C41.978 108.031 43.6655 113.057 46.0248 117.859C46.8425 119.88 48.0665 121.615 49.6915 123.068C49.853 123.234 49.853 123.401 49.6915 123.573C49.6342 123.646 49.5509 123.687 49.4571 123.698Z" fill="#764904"/>
<path d="M116.113 106.234C116.004 106.245 115.915 106.214 115.848 106.135C115.733 105.995 115.733 105.854 115.848 105.714C117.077 104.396 118.077 102.927 118.848 101.297C119.619 99.6667 120.129 97.9583 120.369 96.1719V96C120.592 94.9375 120.665 93.8594 120.598 92.776C120.525 91.6927 120.311 90.6354 119.957 89.6094C119.598 88.5781 119.113 87.6198 118.494 86.724C117.879 85.8281 117.155 85.0313 116.322 84.3333C114.217 82.4271 111.79 81.1302 109.04 80.4479C106.332 79.6667 103.572 79.3073 100.759 79.3646C99.1081 79.349 97.5092 79.6458 95.9727 80.25C94.431 80.8229 93.254 81.8229 92.4415 83.2552C92.0821 84.0469 91.8217 84.8698 91.655 85.724C91.431 86.9636 90.9675 88.099 90.254 89.1354C89.3269 90.1667 88.2175 90.9375 86.9206 91.4375C85.8894 91.849 84.9519 92.4271 84.1185 93.1667C83.155 94.2188 82.6081 95.4583 82.4831 96.8854C82.3581 98.1979 82.3894 99.5104 82.5821 100.818C82.5873 100.917 82.5612 101 82.4987 101.078C82.4362 101.156 82.3581 101.198 82.2592 101.208C82.1602 101.224 82.0717 101.198 81.9935 101.13C81.9154 101.068 81.8737 100.984 81.8685 100.885C81.6654 99.5261 81.6394 98.1667 81.78 96.8021C81.9102 95.1875 82.5196 93.7813 83.6185 92.5885C84.4987 91.7865 85.4935 91.1667 86.5977 90.724C87.7904 90.2656 88.8165 89.5677 89.681 88.6302C90.3165 87.6719 90.7279 86.625 90.9154 85.4844C91.0925 84.5833 91.379 83.7135 91.7696 82.875C92.6394 81.2448 93.931 80.0938 95.6498 79.4219C97.2748 78.7865 98.9571 78.4792 100.702 78.4948C103.561 78.4479 106.363 78.8177 109.108 79.6042C111.994 80.3021 114.54 81.6406 116.754 83.6198C117.634 84.3594 118.395 85.2031 119.04 86.1511C119.686 87.099 120.197 88.1146 120.566 89.2031C120.936 90.2917 121.155 91.4063 121.223 92.5573C121.29 93.7031 121.202 94.8385 120.957 95.9583V96.099C120.712 97.9531 120.186 99.7292 119.384 101.417C118.577 103.109 117.535 104.635 116.249 105.995C116.238 106.094 116.191 106.172 116.113 106.234Z" fill="#764904"/>
<path d="M69.905 108.594C69.8373 108.609 69.7644 108.609 69.6967 108.594C67.8686 107.203 66.6134 105.406 65.9259 103.219C65.4259 101.719 65.03 100.193 64.7384 98.6406C64.6082 98.0781 64.4832 97.5052 64.3425 96.9271C64.2332 96.3177 64.0248 95.75 63.7123 95.2135C63.3894 94.8021 63.0144 94.4375 62.5925 94.1198L58.629 90.9219C57.7071 90.1771 57.3842 89.4166 57.7332 88.7552C57.8165 88.6041 57.9415 88.5416 58.1134 88.5729C58.4102 88.6302 58.7071 88.7031 58.9936 88.8021L57.9154 87.4635C57.7019 87.2396 57.5561 86.9739 57.4832 86.6666C57.4363 86.4166 57.4884 86.1927 57.6342 85.9896C57.7488 85.8177 57.905 85.7135 58.1134 85.6823C58.3529 85.6666 58.5717 85.7291 58.7696 85.8646L59.9727 86.5677L58.7696 84.6562C58.5925 84.4323 58.4884 84.1719 58.4623 83.8854C58.4571 83.5833 58.5769 83.3333 58.8113 83.1406C59.1134 82.875 59.4623 82.776 59.8634 82.8333C60.3477 82.9479 60.7748 83.1771 61.1394 83.5208H61.2071C61.6238 83.8594 62.0561 84.1719 62.5092 84.4635L62.6915 84.5729C62.8477 84.6927 63.0196 84.7969 63.1967 84.8854C63.1967 84.8854 63.1967 84.7448 63.0821 84.6302C62.9154 84.2812 62.7904 83.9687 62.6498 83.6614L62.5248 83.3646C62.3269 82.9531 62.2123 82.5208 62.1863 82.0625C62.155 81.7864 62.2123 81.5364 62.3582 81.3021C62.8321 80.6458 63.53 81.0937 63.754 81.3021L63.9259 81.4166C64.4832 81.7344 64.9936 82.1198 65.4519 82.5677C66.3217 83.3906 67.1446 84.2604 67.9154 85.1771C68.1967 84.6771 68.5248 84.2083 68.8946 83.776C69.2227 83.3385 69.655 83.1094 70.1967 83.0885C70.4779 83.0989 70.6915 83.2187 70.8425 83.4531C71.0092 83.7448 71.0457 84.0521 70.9571 84.3802C70.8738 84.9479 70.7644 85.5052 70.6186 86.0625C70.3425 86.8854 70.1759 87.7344 70.129 88.6041C70.1915 90.2344 70.7904 91.6406 71.9207 92.8125C73.0665 94 74.3269 95.0312 75.7175 95.9166L84.4988 101.953C84.5821 102.01 84.6342 102.089 84.6498 102.187C84.6707 102.286 84.655 102.375 84.5977 102.458C84.5404 102.536 84.4675 102.589 84.3686 102.604C84.2748 102.62 84.1863 102.599 84.1082 102.542L75.3113 96.5052C73.8686 95.5989 72.5613 94.526 71.3894 93.2916C70.1186 91.9635 69.4571 90.375 69.4154 88.5312C69.4675 87.6041 69.6394 86.6927 69.9311 85.8073C70.0717 85.3021 70.2279 84.7552 70.3269 84.2396C70.3269 84.1406 70.3269 83.9271 70.3269 83.8437C70.2904 83.8229 70.2592 83.8229 70.2279 83.8437C69.9363 83.8906 69.7019 84.0312 69.5248 84.2656C69.0717 84.8125 68.6915 85.4114 68.3946 86.0625C68.3321 86.1771 68.2384 86.25 68.1134 86.2708C67.9779 86.2969 67.8738 86.2552 67.7904 86.1458C66.9207 85.0937 65.9884 84.0989 64.9884 83.1719C64.5665 82.7604 64.0977 82.4062 63.5873 82.1198C63.5144 82.0833 63.4415 82.0416 63.379 81.9896C62.9415 81.7239 62.9154 81.7656 62.8738 81.8385C62.8425 81.9375 62.8425 82.0416 62.8738 82.1458C62.9102 82.5052 63.004 82.8541 63.155 83.1823L63.28 83.4791C63.4207 83.7864 63.5457 84.0989 63.7019 84.4062C63.9102 84.7187 63.9727 85.0625 63.8842 85.4323C63.8113 85.5937 63.6915 85.6979 63.5196 85.7396C63.1394 85.8541 62.7332 85.5989 62.2696 85.276L62.1186 85.1771C61.6342 84.875 61.1654 84.5469 60.7175 84.1927H60.6446C60.379 83.9375 60.0665 83.75 59.7071 83.6458C59.53 83.625 59.3686 83.6719 59.2332 83.7864C59.1759 83.8385 59.1394 83.9062 59.1342 83.9844C59.1602 84.1354 59.2279 84.2656 59.3321 84.3802L61.405 87.4635C61.5092 87.6094 61.5092 87.7552 61.405 87.901C61.2592 88.0156 61.1134 88.0156 60.9675 87.901L58.4467 86.5L58.254 86.4114C58.2332 86.4583 58.2332 86.5052 58.254 86.5521C58.3113 86.7291 58.405 86.8854 58.53 87.0156L60.5769 89.4479C60.7123 89.5937 60.7123 89.7448 60.5769 89.8958C60.4519 90.0469 60.3061 90.0833 60.129 89.9948C59.5717 89.6875 58.9884 89.4583 58.379 89.3073C58.379 89.6979 58.8946 90.1354 59.1342 90.3281L63.0977 93.5156C63.5717 93.875 63.9936 94.2917 64.3582 94.7656C64.7227 95.375 64.9727 96.0312 65.1029 96.7291C65.2384 97.3073 65.3529 97.8802 65.4779 98.4583C65.7592 99.9635 66.129 101.448 66.5977 102.906C67.2384 104.953 68.405 106.635 70.1029 107.948C70.1811 108 70.2332 108.078 70.254 108.172C70.2696 108.271 70.254 108.359 70.1967 108.437C70.129 108.542 70.03 108.594 69.905 108.594Z" fill="#764904"/>
<path d="M46.5977 120.12C46.4935 120.115 46.405 120.068 46.3321 119.99C46.2592 119.922 46.2279 119.839 46.2279 119.74C46.2279 119.641 46.2592 119.557 46.3321 119.484L47.8894 118.167C54.0196 112.932 59.8321 107.974 68.0717 106.307C68.2956 106.271 68.4362 106.365 68.4883 106.583C68.5092 106.682 68.4935 106.771 68.4414 106.854C68.3842 106.938 68.306 106.99 68.2123 107.005C60.155 108.651 54.681 113.307 48.3477 118.714L46.7956 120.037C46.7383 120.083 46.6706 120.109 46.5977 120.12Z" fill="#764904"/>
<mask id="mask0_52_1380" style="mask-type:luminance" maskUnits="userSpaceOnUse" x="68" y="104" width="68" height="46">
<path d="M68.5092 104.552H135.733V149.885H68.5092V104.552Z" fill="white"/>
</mask>
<g mask="url(#mask0_52_1380)">
<path d="M121.03 149.766C120.931 149.76 120.842 149.724 120.775 149.656C120.702 149.583 120.671 149.5 120.671 149.401C120.671 149.302 120.702 149.219 120.775 149.151C125.165 144.833 128.717 139.906 131.421 134.365C133.91 129.766 135.04 124.854 134.811 119.625C134.754 118.359 134.551 117.115 134.186 115.896C133.822 114.677 133.316 113.521 132.671 112.432C132.02 111.339 131.249 110.344 130.353 109.443C129.452 108.547 128.462 107.771 127.374 107.12C125.426 106.188 123.374 105.693 121.212 105.641C119.056 105.589 116.983 105.974 114.988 106.813C110.244 108.651 107.233 111.891 104.04 115.318C103.645 115.74 103.254 116.172 102.848 116.594C89.9779 130.281 76.3893 138.875 70.1289 140.026C69.8998 140.057 69.7591 139.958 69.707 139.729C69.6914 139.63 69.7123 139.542 69.7695 139.464C69.8268 139.385 69.905 139.339 70.0039 139.323C76.1393 138.182 89.6133 129.677 102.327 116.162C102.733 115.74 103.129 115.302 103.52 114.88C106.77 111.401 109.837 108.104 114.723 106.193C116.816 105.323 118.994 104.917 121.254 104.979C123.514 105.042 125.665 105.563 127.707 106.542C128.848 107.219 129.889 108.026 130.827 108.958C131.764 109.896 132.577 110.932 133.259 112.068C133.941 113.203 134.478 114.406 134.863 115.677C135.249 116.948 135.473 118.245 135.54 119.573C135.775 124.927 134.624 129.958 132.077 134.677C129.342 140.292 125.744 145.287 121.28 149.656C121.212 149.729 121.129 149.766 121.03 149.766Z" fill="#764904"/>
</g>
<mask id="mask1_52_1380" style="mask-type:luminance" maskUnits="userSpaceOnUse" x="0" y="108" width="129" height="55">
<path d="M0.509155 108.552H128.509V163H0.509155V108.552Z" fill="white"/>
</mask>
<g mask="url(#mask1_52_1380)">
<path d="M106.712 162.568C103.561 162.547 100.473 162.078 97.457 161.167C95.6341 160.594 93.8581 159.917 92.1185 159.13C90.3946 158.333 88.6237 157.656 86.8112 157.094C83.957 156.464 81.082 156.339 78.181 156.729L76.0091 156.885C49.905 158.271 16.3998 156.25 4.77476 138.505C3.70705 136.854 2.8633 135.099 2.23309 133.234C1.60288 131.375 1.21226 129.464 1.06121 127.5C0.904963 125.537 0.998715 123.589 1.32684 121.651C1.66017 119.714 2.22788 117.844 3.02476 116.047C3.57163 114.734 4.32163 113.552 5.28517 112.51C6.24871 111.464 7.3633 110.615 8.62892 109.969C11.8477 108.563 15.4623 109.563 18.9102 110.823C27.0925 113.823 34.8737 117.641 42.2591 122.281C45.1966 124.135 48.1133 126.156 50.9414 128.094C54.7904 130.76 58.7852 133.51 62.8998 135.88C82.4675 147.224 104.639 148.276 124.249 149.234C125.275 149.156 126.186 149.448 126.978 150.104C127.467 150.583 127.681 151.162 127.624 151.844C127.348 153.037 126.697 153.974 125.676 154.651C124.978 155.156 124.275 155.719 123.603 156.266C122.931 156.813 122.092 157.484 121.306 158.047C117.936 160.432 114.202 161.865 110.103 162.344C108.978 162.495 107.848 162.568 106.712 162.568ZM82.2279 155.818C83.8477 155.787 85.431 155.984 86.9935 156.406C88.8373 156.974 90.6341 157.662 92.3841 158.469C94.0977 159.24 95.8477 159.901 97.6393 160.464C101.702 161.703 105.848 162.089 110.077 161.615C114.051 161.13 117.665 159.729 120.931 157.401C121.702 156.844 122.467 156.24 123.197 155.635C123.926 155.031 124.598 154.526 125.301 154.005C126.181 153.49 126.764 152.745 127.051 151.76C127.092 151.287 126.941 150.896 126.587 150.578C125.926 150.063 125.181 149.844 124.348 149.922C104.639 148.995 82.2279 147.927 62.5352 136.599C58.3373 134.214 54.3998 131.448 50.5352 128.781C47.7331 126.844 44.806 124.833 41.8789 122.984C34.5352 118.375 26.7956 114.578 18.655 111.599C15.3633 110.391 11.905 109.448 8.85288 110.729C7.681 111.339 6.64976 112.135 5.75913 113.109C4.86851 114.083 4.16538 115.177 3.65496 116.396C2.88934 118.135 2.34767 119.943 2.02996 121.818C1.71226 123.693 1.62892 125.578 1.77476 127.474C1.9258 129.37 2.306 131.219 2.91538 133.021C3.52476 134.818 4.34767 136.521 5.37892 138.115C16.7539 155.552 50.056 157.557 75.9675 156.167L78.1289 156.026C79.431 155.917 80.832 155.818 82.2279 155.818Z" fill="#764904"/>
</g>
<path d="M103.353 148.49C103.16 148.484 103.046 148.391 103.004 148.208C102.978 148.016 103.056 147.891 103.238 147.828C115.634 144.74 123.28 134.677 125.186 130.984C125.233 130.896 125.301 130.844 125.395 130.813C125.488 130.786 125.577 130.797 125.665 130.844C125.749 130.885 125.811 130.953 125.843 131.047C125.869 131.141 125.863 131.234 125.817 131.323C123.869 135.026 116.014 145.359 103.41 148.417L103.353 148.49Z" fill="#764904"/>
<path d="M83.0978 156.547C64.3426 156.099 48.4051 151.859 28.7697 145.177C22.5509 143.057 16.0353 140.625 10.8009 136.391C10.7019 136.333 10.6394 136.25 10.6186 136.141C10.5926 136.026 10.6186 135.927 10.6915 135.839C10.7592 135.75 10.853 135.708 10.9676 135.703C11.0769 135.698 11.1707 135.74 11.2488 135.828C16.3478 140.037 22.7749 142.396 28.9363 144.49C48.5457 151.172 64.3999 155.38 83.0561 155.828C83.1707 155.807 83.2697 155.833 83.3582 155.906C83.4467 155.979 83.4936 156.073 83.4936 156.188C83.4936 156.302 83.4467 156.396 83.3582 156.469C83.2697 156.542 83.1707 156.568 83.0561 156.547H83.0978Z" fill="#764904"/>
<path d="M64.9207 103.734C64.4884 105.464 63.7644 107.063 62.7488 108.521C64.4779 107.625 66.3061 107 68.2227 106.656C66.6811 104.089 66.1394 101.365 65.0717 98.6562C65.155 100.354 65.1029 102.047 64.9207 103.734Z" fill="#764904"/>
<path d="M84.5977 8.63022C91.8112 16.1823 95.5196 25.5573 94.2487 34.7552C93.6185 39.2865 91.4467 43.4167 90.0456 47.7656C88.6446 52.1198 88.155 57.1979 90.7175 60.9896C88.5873 60.0938 86.5144 59.1354 84.4571 58.0573C82.4987 57.1354 80.4831 56.349 78.4206 55.6979C77.4935 55.3906 76.5977 55.0052 75.7331 54.5469C74.6029 53.8906 73.6654 53.0208 72.931 51.9375C73.8112 51.7656 87.2852 42.8386 87.2852 25.9115C87.2852 20.9115 85.5508 15.5208 81.2227 13.0365L84.5977 8.63022Z" fill="#764904"/>
<path d="M89.0665 60.1771L88.853 60.0625C87.4363 61.3802 85.9415 62.6042 84.3738 63.7396C81.9363 65.4427 79.353 66.8854 76.629 68.0677C76.5717 68.1406 76.5717 68.2135 76.629 68.2917C76.629 68.375 76.7697 68.4323 76.8217 68.3906C79.4884 67.0729 82.0457 65.5677 84.4832 63.8698C86.103 62.7396 87.6551 61.5208 89.1342 60.2188L89.0665 60.1771Z" fill="#764904"/>
<path d="M84.0925 71.4896C84.1029 70.6407 83.9935 69.8021 83.7696 68.9792C83.6029 68.1511 83.2123 67.25 83.4779 66.5521C83.0769 67 82.6967 67.4688 82.3425 67.9532C81.9987 68.4844 81.7175 68.9532 81.504 69.3594C81.3217 69.6719 81.1706 70 81.0404 70.3386C80.879 70.7657 80.8373 71.198 80.9154 71.6459C81.056 72.4896 81.7956 74.9584 81.181 75.8542C82.1758 75.3073 82.9519 74.5365 83.504 73.5417C83.6081 73.3282 83.7019 73.1146 83.7852 72.8959C83.9467 72.4427 84.0508 71.974 84.0925 71.4896Z" fill="#764904"/>
<path d="M75.1134 71.1562C74.2957 71.4271 73.4519 71.5156 72.5925 71.4219C71.754 71.3073 70.905 71.2812 70.0613 71.3385C70.8998 70.6875 71.6915 69.9844 72.4259 69.2188C72.9571 68.7448 73.5561 68.3958 74.2332 68.1771C74.5561 68.0781 74.8894 67.9531 75.2279 67.8698C75.5613 67.7865 75.8998 67.7031 76.2488 67.6302L77.2592 67.4479L78.254 67.2083C78.8582 66.9167 79.4936 66.7083 80.155 66.5938C79.7227 66.9583 79.2904 67.25 78.8946 67.6302C78.4884 68.0156 78.1082 68.4323 77.7644 68.8802C77.3946 69.3437 77.004 69.7813 76.5873 70.1979C76.1654 70.625 75.6707 70.9427 75.1134 71.1562Z" fill="#764904"/>
<path d="M87.7488 61.3855C87.3999 61.6615 87.0665 61.9584 86.754 62.2813C86.4311 62.6042 86.1238 62.9115 85.8322 63.2657C85.5353 63.6146 85.254 63.9792 84.9884 64.3594C84.7228 64.7396 84.4572 65.1198 84.2072 65.5261C83.7019 66.3802 83.3061 67.2813 83.0144 68.2344C82.8582 68.724 82.6603 69.1875 82.4103 69.6355C82.1759 70.0938 81.8582 70.4792 81.4624 70.8021L81.3634 70.6771C81.7488 70.3594 82.0509 69.974 82.2749 69.5261C82.5144 69.0782 82.7124 68.6094 82.8582 68.1198C83.129 67.1355 83.5197 66.2032 84.0249 65.3125C84.2749 64.8907 84.5405 64.5157 84.8061 64.1355C85.0665 63.75 85.3478 63.3802 85.6499 63.0261C85.9415 62.6771 86.2644 62.3542 86.5874 62.0313C86.8999 61.7084 87.228 61.4063 87.5822 61.1302L87.7488 61.3855Z" fill="#764904"/>
<path d="M89.0665 60.1771L88.8842 60.0781C88.7696 60.1667 88.6498 60.2396 88.5196 60.3021C88.1602 60.4792 87.78 60.6042 87.3842 60.6823L86.1915 60.8906C85.3946 61.0365 84.5873 61.099 83.7696 61.0729C83.3634 61.0729 82.9571 61.0052 82.5404 60.9635C81.7488 60.8646 80.9623 60.8646 80.1707 60.9635L80.2957 61.2865C81.0665 61.1771 81.8373 61.1771 82.6082 61.2865C82.9988 61.2865 83.4363 61.3698 83.8425 61.3698C84.254 61.3906 84.6602 61.3906 85.0717 61.3698H85.6915L86.2904 61.2552C86.6863 61.1875 87.0769 61.1146 87.4832 61.0208C87.879 60.9271 88.2644 60.7917 88.629 60.6094L89.0769 60.3177L89.0665 60.1771Z" fill="#764904"/>
<path d="M83.155 60.6562C82.7748 60.4166 82.4258 60.1041 82.0769 59.8385C81.3529 59.2135 80.5196 58.8073 79.5821 58.6198C78.9727 58.5885 78.4102 58.7448 77.8998 59.0833C77.3998 59.3854 76.8633 59.5937 76.2904 59.7135C76.9414 60 77.4987 60.4166 77.9571 60.9635C78.431 61.5312 78.9935 62 79.6394 62.3645C79.8842 62.4843 80.1394 62.5468 80.4102 62.5468C80.6498 62.5573 80.8842 62.526 81.1081 62.4531C81.5456 62.302 81.9727 62.125 82.3842 61.9166C82.8894 61.7083 83.3633 61.5104 83.8685 61.3281C84.0664 61.2448 84.1498 61.2031 83.8685 61.0208C83.5873 60.8385 83.3946 60.7916 83.155 60.6562Z" fill="#764904"/>
<path d="M90.4519 62.1145C90.5925 62.677 90.8164 63.2343 90.9727 63.8125C91.2748 65.0781 91.2383 66.3385 90.8737 67.5885C90.4779 68.8073 89.9571 69.9687 89.3008 71.0677C89.431 70.3541 89.2956 69.6979 88.8998 69.0885C88.5248 68.4895 88.2071 67.8645 87.9467 67.2083C87.7539 66.5416 87.7539 65.8698 87.9467 65.2031C88.1394 64.5885 88.4102 64.0156 88.7592 63.4739L89.5717 62.2395C89.8477 61.8333 90.0717 61.3958 90.2435 60.9323C90.3685 61.3177 90.4414 61.7083 90.4519 62.1145Z" fill="#764904"/>
<path d="M43.5196 46.125C43.7801 47.2969 44.353 48.2917 45.228 49.1146C45.4103 49.3229 45.6342 49.5208 45.8426 49.7344L46.4571 50.3333C46.879 50.7187 47.2592 51.1354 47.6082 51.5833C47.4259 50.1823 47.2853 48.9063 47.103 47.6406C47.0144 47.0208 46.879 46.4115 46.6967 45.8177C46.603 45.5208 46.4988 45.2292 46.3738 44.9479C46.2488 44.6667 46.0926 44.3958 45.9415 44.1146C45.7853 43.8385 45.2801 43.1927 44.9728 42.7135C44.8009 42.474 44.6446 42.224 44.4988 41.9688C44.3426 41.7083 44.2228 41.4323 44.1342 41.1406C44.1238 41.5469 44.0769 41.9479 43.9936 42.349C43.9259 42.7396 43.8113 43.151 43.7123 43.5677C43.6134 43.9896 43.5457 44.3958 43.4884 44.8177C43.4311 45.2552 43.4415 45.6927 43.5196 46.125Z" fill="white"/>
<path d="M45.3686 46.3073C44.8894 44.9063 44.53 43.474 44.2852 42.0105L44.2019 41.3542C44.0665 40.099 44.004 38.849 44.0092 37.5886C44.0092 37.448 44.0092 37.2969 44.0092 37.1563C44.0092 36.7344 44.0092 36.3282 44.0769 35.9063C44.1394 34.9896 44.254 34.0834 44.4154 33.1823C44.6238 32.0782 44.8946 30.9844 45.2279 29.9115L44.9311 30.1094C44.6394 31.1042 44.3998 32.1146 44.2175 33.1407C44.2175 33.5052 44.1029 33.8855 44.0613 34.2605C44.0613 34.6146 43.9779 34.9792 43.9363 35.3282C43.9363 36.073 43.8373 36.8334 43.8269 37.573C43.8321 38.8855 43.9311 40.1927 44.1186 41.4896C44.1186 41.6615 44.1186 41.8282 44.1915 42.0105C44.4311 43.4792 44.7644 44.9219 45.1863 46.349C45.1863 46.349 45.1863 46.349 45.2957 46.349C45.4102 46.349 45.379 46.349 45.3686 46.3073Z" fill="white"/>
<path d="M45.6759 39.9323C45.978 40.1406 46.3061 40.3073 46.6551 40.427C47.004 40.552 47.3842 40.651 47.7332 40.7604C48.0821 40.8541 48.4259 40.9791 48.754 41.125C49.0561 41.25 49.3217 41.4323 49.5561 41.6614C49.5561 41.4375 49.4155 41.2239 49.3582 41C49.2853 40.776 49.2332 40.5468 49.2019 40.3125L49.1186 39.9635C49.1238 39.8593 49.1238 39.7552 49.1186 39.651C49.0665 39.4687 49.004 39.2916 48.9259 39.1198C48.7853 38.8333 48.6082 38.5781 48.3894 38.3489C48.0665 38.026 47.6863 37.7812 47.2592 37.6198C46.8946 37.4791 46.1915 37.2552 45.5196 36.9427C44.8478 36.6354 44.2332 36.2395 44.1186 35.8073C43.9676 36.5885 44.0353 37.3489 44.3165 38.0885C44.5926 38.8333 45.0457 39.4479 45.6759 39.9323Z" fill="white"/>
<path d="M40.2123 38.8958C40.155 38.4896 40.155 38.0833 40.2123 37.6719C40.2539 37.2604 40.4102 36.901 40.6862 36.5938C41.0977 36.2292 41.5664 35.9688 42.0873 35.8073C42.5977 35.5365 43.0612 35.2083 43.4883 34.8229C43.7123 34.6563 43.8946 34.4896 44.0352 34.375L44.2748 34.1927V34.0938C44.2748 34.0938 44.2748 34.3333 44.1602 34.6406C44.0873 35.0365 43.9883 35.4219 43.8685 35.8073C43.6862 36.7135 43.306 37.526 42.7331 38.25C42.3425 38.6146 41.8529 38.9531 41.4727 39.3594C41.2279 39.625 41.0144 39.9219 40.8425 40.2448L40.6029 40.75C40.6029 40.9323 40.4779 41.1146 40.4206 41.2969V40.5938C40.3998 40.0208 40.3321 39.4531 40.2123 38.8958Z" fill="white"/>
<path d="M29.5665 129.214C26.7644 127.859 23.8738 126.74 20.8999 125.844C17.9155 124.927 14.879 124.302 11.7801 123.964C11.0092 123.964 10.2384 123.797 9.46757 123.781L7.14465 123.698H4.80611C4.4259 123.698 4.03528 123.698 3.63944 123.698L2.47799 123.964L1.45715 124.062C1.46236 124.115 1.46236 124.167 1.45715 124.219V124.443L2.53528 124.328L3.68632 124.229C4.06653 124.187 4.44674 124.161 4.83215 124.161H9.46757C10.2384 124.161 10.9936 124.286 11.7644 124.344C14.8478 124.641 17.8842 125.198 20.8686 126.016C23.8374 126.901 26.6811 128.089 29.3999 129.578C29.4936 129.604 29.5665 129.573 29.6082 129.479C29.6499 129.443 29.6655 129.391 29.6551 129.339C29.6447 129.281 29.6186 129.24 29.5665 129.214Z" fill="#764904"/>
<path d="M27.2852 121.464C26.5925 121.974 25.9935 122.573 25.4779 123.26C24.905 123.906 24.4414 124.766 23.7123 124.99C24.3269 124.99 25.181 124.99 25.6289 124.99C26.5821 124.958 27.5144 124.823 28.431 124.583C28.8789 124.464 29.2592 124.229 29.5664 123.88C30.155 123.26 31.655 121.172 32.7487 121.156C31.8894 120.781 30.9935 120.604 30.056 120.625C29.056 120.651 28.1342 120.932 27.2852 121.464Z" fill="#764904"/>
<path d="M32.8842 128.932C33.6394 129.427 34.254 130.052 34.7332 130.812C35.1915 131.583 35.7176 132.292 36.3165 132.948C35.2488 132.682 34.1655 132.495 33.0665 132.385C32.3478 132.229 31.6811 131.953 31.0665 131.547C30.4467 131.156 29.8634 130.719 29.3165 130.24L28.504 129.536L27.6603 128.891C27.0301 128.573 26.4467 128.187 25.9103 127.729C27.0301 128.052 28.1655 128.229 29.3269 128.26C29.9155 128.26 30.5457 128.26 31.1499 128.401C31.7644 128.453 32.3478 128.635 32.8842 128.932Z" fill="#764904"/>
<path d="M16.7228 124.781C17.1863 124.891 17.6499 124.964 18.1238 125.005C18.5874 125.005 19.0509 125.115 19.5249 125.146C19.9988 125.172 20.478 125.146 20.9259 125.146L22.3269 125.057C23.3426 124.932 24.3322 124.693 25.2957 124.344C26.3165 123.912 27.379 123.787 28.4728 123.964V124.12C27.9676 124.01 27.4572 124.01 26.9467 124.12C26.4311 124.208 25.9259 124.339 25.4363 124.51C24.4624 124.875 23.4676 125.13 22.4363 125.271C21.9728 125.328 21.504 125.359 21.0353 125.37C20.5457 125.37 20.0717 125.37 19.6342 125.37C19.2019 125.37 18.6863 125.287 18.2384 125.24C17.7644 125.193 17.2957 125.109 16.8374 125.005L16.7228 124.781Z" fill="#764904"/>
<path d="M14.2019 124.359C14.6186 124.396 15.0196 124.495 15.405 124.651C15.7957 124.823 16.1602 125.042 16.4988 125.297L17.4936 126.083L17.9571 126.49L18.4207 126.943C18.7123 127.25 19.004 127.557 19.2748 127.896C19.5404 128.234 19.7748 128.599 20.0144 128.922C20.4623 129.594 20.9936 130.193 21.6134 130.719L21.4311 131.01C20.8165 130.458 20.28 129.844 19.8165 129.156C19.5821 128.807 19.3582 128.443 19.0925 128.12C18.8321 127.792 18.5561 127.474 18.2644 127.177C17.6811 126.578 17.0613 126.021 16.3998 125.51C16.0769 125.245 15.7279 125.026 15.3529 124.849C14.9832 124.677 14.5925 124.568 14.1863 124.526L14.2019 124.359Z" fill="#764904"/>
<path d="M8.47278 123.823C8.94153 123.854 9.40507 123.854 9.87382 123.823C10.3061 123.823 10.7592 123.823 11.2749 123.698C12.1811 123.552 13.0717 123.344 13.9519 123.078C14.8686 122.792 15.7592 122.443 16.6238 122.026C17.5457 121.625 18.4363 121.156 19.2853 120.625L19.3842 120.833C18.5249 121.396 17.629 121.891 16.6967 122.323C16.478 122.432 16.254 122.531 16.0249 122.615C15.8009 122.729 15.5717 122.828 15.3374 122.911C14.8894 123.094 14.4415 123.26 13.9363 123.401C13.0197 123.646 12.0874 123.833 11.1499 123.964C10.7019 124.021 10.2332 124.063 9.74882 124.089C9.28007 124.12 8.81653 124.12 8.34778 124.089L8.47278 123.823Z" fill="#764904"/>
<path d="M5.19666 123.797C5.97791 123.865 6.64978 124.177 7.21228 124.724C7.76436 125.276 8.2852 125.865 8.76957 126.479C9.65499 127.599 10.7435 128.464 12.03 129.073V129.229C10.7123 128.635 9.5977 127.781 8.68624 126.661C8.19665 126.068 7.67582 125.5 7.12895 124.964C6.58207 124.453 5.94145 124.177 5.19666 124.135V123.797Z" fill="#764904"/>
<path d="M19.2019 128.865C19.2019 129.313 19.2019 129.776 19.2019 130.266C19.1863 131.234 19.4103 132.141 19.8634 132.99C20.2436 133.5 20.7384 133.854 21.3478 134.042C21.9155 134.255 22.4415 134.557 22.9155 134.943C22.7124 134.255 22.6811 133.557 22.8165 132.849C22.9519 132.115 22.9519 131.38 22.8165 130.646C22.7384 130.385 22.6186 130.146 22.4519 129.932C22.3009 129.734 22.1186 129.568 21.9207 129.427C21.504 129.167 21.0769 128.938 20.629 128.74L19.228 127.938C19.0509 127.823 18.9519 127.781 18.9936 128.12C19.0353 128.458 19.2019 128.599 19.2019 128.865Z" fill="#764904"/>
<path d="M16.0353 121.802C16.3999 121.339 16.7072 120.818 17.0717 120.401C17.8999 119.359 18.9363 118.604 20.1811 118.141C21.4311 117.693 22.7176 117.396 24.0353 117.24C23.379 117.568 22.9363 118.073 22.7019 118.771C22.4624 119.432 22.1655 120.068 21.8061 120.677C21.3947 121.271 20.853 121.693 20.1811 121.943C19.5613 122.172 18.9207 122.307 18.2644 122.349L16.7384 122.49C16.2228 122.521 15.7176 122.615 15.2228 122.771C15.353 122.365 15.8113 122.099 16.0353 121.802Z" fill="#764904"/>
<path d="M10.0144 127.839C10.5769 128.5 10.8425 129.51 11.4154 130.115C11.9102 130.594 12.504 130.849 13.1915 130.87C13.8425 130.849 14.4727 130.948 15.0821 131.167C14.7904 130.604 14.5248 130 14.2748 129.396C14.1029 128.88 13.8425 128.411 13.4884 127.995C12.9363 127.547 12.3165 127.427 11.6394 127.641C11.004 127.828 10.3686 127.828 9.73315 127.641L10.0144 127.839Z" fill="#764904"/>
<path d="M3.24878 123.964C3.59774 123.943 3.9467 123.891 4.28524 123.812C4.62899 123.75 4.96753 123.661 5.29565 123.542C5.6342 123.417 5.95711 123.26 6.2592 123.068C6.58211 122.844 6.87899 122.594 7.15503 122.323C7.71753 121.802 8.24878 121.187 8.87899 120.651C9.47274 120.073 10.1811 119.708 10.9936 119.557V119.823C10.2123 119.958 9.53524 120.307 8.97795 120.875C8.37378 121.396 7.84253 122.016 7.25399 122.547C6.97274 122.823 6.66545 123.078 6.34253 123.307C6.02482 123.51 5.69149 123.677 5.33732 123.812C4.99878 123.932 4.65503 124.021 4.30086 124.078C3.9519 124.161 3.60295 124.219 3.24878 124.245V123.964Z" fill="#764904"/>
<path d="M10.1394 121C11.004 121.219 11.879 121.266 12.7592 121.156C13.4207 120.964 14.004 120.63 14.5092 120.162C15.0405 119.667 15.5405 119.141 16.0092 118.589C15.6499 118.787 15.2697 118.859 14.8582 118.797C14.4728 118.75 14.0978 118.662 13.728 118.547C13.0926 118.396 12.4572 118.333 11.8061 118.349C11.1394 118.344 10.5144 118.51 9.93111 118.839C8.79049 119.505 8.07695 120.484 7.78528 121.776C8.47799 121.229 9.25924 120.969 10.1394 121Z" fill="#764904"/>
<mask id="mask2_52_1380" style="mask-type:luminance" maskUnits="userSpaceOnUse" x="45" y="0" width="28" height="26">
<path d="M45.8425 0H72.5092V25.8854H45.8425V0Z" fill="white"/>
</mask>
<g mask="url(#mask2_52_1380)">
<path d="M64.4832 0.515622L63.9103 0.994789L63.7696 1.13541C63.1967 1.21875 62.6134 1.26041 62.0353 1.26041C61.4415 1.28646 60.8894 1.45312 60.379 1.75C59.8686 2.06771 59.405 2.44271 58.978 2.875C58.5457 3.35937 58.004 3.625 57.353 3.67187C57.2696 3.68229 57.228 3.72916 57.228 3.8125C57.2019 3.85416 57.2019 3.89583 57.2176 3.94271C57.2332 3.98437 57.2696 4.01562 57.3113 4.02604C57.8738 4.15625 58.4467 4.21875 59.0196 4.22396C60.0457 4.27604 61.0248 4.07812 61.9519 3.63021C62.379 3.375 62.7436 3.04166 63.0405 2.63541L64.0248 1.31771V1.20312C64.3269 0.927081 64.6446 0.671873 64.9728 0.432289L64.4832 0.515622ZM60.5196 3.02604C61.2228 2.76041 61.9207 2.47916 62.5926 2.1875C62.8478 2.08854 63.0873 1.97395 63.3217 1.83333C63.0978 2.18229 62.8582 2.51562 62.5926 2.83333C62.1655 3.30208 61.6394 3.61458 61.0248 3.77083C59.978 4.04166 58.9259 4.09375 57.8582 3.92708C58.2853 3.79166 58.6551 3.5625 58.9676 3.23958C59.1915 3.04166 59.3842 2.81771 59.6238 2.60937C59.853 2.40104 60.103 2.21875 60.3686 2.05729C60.8946 1.71875 61.4728 1.53125 62.103 1.5C62.5248 1.5 62.9415 1.5 63.3634 1.5L63.1655 1.625C62.8894 1.80208 62.5926 1.95312 62.2853 2.07291L60.4519 2.83333C60.2853 2.84375 60.3686 3.09896 60.5196 3.02604ZM72.1186 19.2552C72.0457 18.1823 71.7644 17.1667 71.2801 16.2083C71.0196 15.7552 70.7123 15.3333 70.353 14.9479L70.0457 14.5833C69.8217 14.2917 69.6811 13.974 69.6238 13.6146C69.6238 13.6146 69.6238 13.5312 69.5405 13.5312C69.0144 11.4271 68.754 9.29166 68.754 7.125C68.8165 5.94271 68.9623 4.76562 69.1915 3.60416C69.2905 3.17708 69.4103 2.75521 69.5561 2.33854C69.5561 2.13021 69.7071 1.93229 69.7801 1.72396C69.8478 1.51041 69.9311 1.21875 70.0301 1.16146L70.7332 0.755206H70.3113C70.228 0.755206 70.0457 0.906248 69.9467 0.953122L69.4832 1.21875C68.0665 2 66.7123 2.88021 65.4207 3.85416C65.1446 4.08333 64.8634 4.375 64.5405 4.58854C64.2175 4.79687 63.9936 4.91146 63.728 5.09375L62.9571 5.60937C62.4259 5.95312 61.8634 6.23958 61.2748 6.47916C60.28 6.93229 59.2436 7.25521 58.1655 7.44791L57.4415 7.5625C56.8217 7.50521 56.2123 7.38541 55.6186 7.21354C55.1082 7.08854 54.6082 6.92708 54.1186 6.73437L53.5873 6.49479C53.103 6.03125 52.5769 5.61458 52.0196 5.24479L51.78 5.41666C52.1238 5.625 52.4519 5.85937 52.7592 6.11458H52.6082C52.228 5.92708 51.8321 5.78646 51.4155 5.69791L51.1498 5.90625H51.3738C51.9623 6.04166 52.53 6.23958 53.0717 6.51041C52.504 6.57291 51.9519 6.70833 51.4155 6.90104C50.8373 7.09896 50.2384 7.19791 49.6238 7.21354C49.53 7.28125 49.4415 7.36458 49.3582 7.44791H49.7488C51.0509 7.44791 52.2436 6.66666 53.5613 6.79166C53.7957 6.90104 54.0509 7.01562 54.2905 7.09896C54.9832 7.34896 55.7019 7.52604 56.4311 7.63021L54.8061 7.85937C54.4155 7.85937 54.0092 8 53.6134 8.08333C52.8217 7.96354 52.03 7.96354 51.2332 8.08333C49.9155 8.3125 48.8269 8.94791 47.9728 9.97916C47.6082 10.4635 47.3321 10.9896 47.129 11.5625C46.9571 12.1094 46.655 12.5781 46.2332 12.9687C46.1759 12.9844 46.1498 13.026 46.1498 13.0885C46.1498 13.1458 46.1759 13.1875 46.2332 13.2083C46.2332 13.2083 46.3478 13.3021 46.4155 13.2083C46.9832 12.7865 47.6082 12.4896 48.2957 12.3229C48.8894 12.1615 49.4675 11.9531 50.03 11.6875C50.5509 11.474 51.0144 11.1719 51.4155 10.776C52.0821 9.90104 52.8321 9.10416 53.6603 8.375C55.3686 7.96875 57.1446 7.90104 58.853 7.54687C60.504 7.19271 62.0353 6.55208 63.4467 5.625C62.9884 6.06771 62.5509 6.53646 62.1446 7.03125C61.0509 8.49479 60.1186 10.0573 59.3426 11.7187C59.2905 11.7396 59.2592 11.7865 59.2592 11.8437C58.7853 12.8125 58.3217 13.7812 57.8582 14.7344C57.3373 15.7135 56.7436 16.651 56.0821 17.5417C55.5144 17.9687 54.905 18.3073 54.2436 18.5677C53.0769 18.9687 51.9832 19.5208 50.9675 20.224C50.5353 20.6198 50.155 21.0625 49.8321 21.5573C49.53 22.0833 49.1134 22.4948 48.5873 22.7917C48.5353 22.8177 48.5092 22.8594 48.5092 22.9219C48.5092 22.9792 48.5353 23.0208 48.5873 23.0469C48.5873 23.1302 48.629 23.1719 48.7123 23.1562C49.4832 23.0729 50.2696 22.9896 51.0405 22.8333H51.1342C52.4988 22.6042 53.6707 22.0052 54.6498 21.0365C55.2436 20.3594 55.6707 19.5937 55.9415 18.7344C56.0509 18.4583 56.1394 18.1615 56.2332 17.8802C57.0665 16.7292 57.7957 15.5104 58.4207 14.2292L59.1759 12.6979C59.1759 13.3594 59.0509 14.0052 58.9676 14.651C58.9676 14.8333 58.9676 15.0156 58.9676 15.1979C58.879 15.8958 58.7592 16.5885 58.603 17.276C58.5717 17.2917 58.5457 17.3177 58.5301 17.349C58.2644 17.8958 57.8946 18.3646 57.4259 18.75C56.6342 19.5104 56.0978 20.4219 55.8165 21.4896C55.6759 22.0417 55.6082 22.6042 55.6186 23.1719C55.728 23.7031 55.6707 24.2187 55.4519 24.7187C55.4519 24.8281 55.5353 24.9531 55.6342 24.8854C56.2696 24.5208 56.8842 24.1146 57.4676 23.6615C58.3998 22.974 59.0405 22.0781 59.3842 20.9687C59.5196 20.3958 59.5196 19.8281 59.3842 19.2552C59.2332 18.5833 59.0196 17.9219 58.853 17.276C58.853 17.1094 58.9259 16.9375 58.9519 16.7865C59.0769 16.125 59.1603 15.4792 59.2488 14.8177C59.3582 13.9062 59.4415 12.9948 59.5248 12.0104C60.4207 9.97916 61.5821 8.10416 62.9988 6.39583C64.0561 5.23437 65.228 4.20833 66.5144 3.30729C67.5196 2.60417 68.5561 1.95312 69.6238 1.35937C69.2332 2.29166 68.9363 3.25521 68.7436 4.25C68.603 5.00521 68.5196 5.77083 68.4884 6.53646C68.4884 6.70833 68.4884 6.89062 68.4884 7.07291L68.3217 8.47396C68.155 10.0312 68.0144 11.6198 67.7748 13.1771C67.7748 13.2604 67.7748 13.3594 67.7748 13.4583C67.5665 13.9219 67.2696 14.3229 66.879 14.651C66.5457 14.9635 66.2332 15.2969 65.9415 15.6458C65.6603 16.0312 65.4363 16.4427 65.2696 16.8854C65.1967 17.0937 65.1446 17.2917 65.0873 17.5C64.9728 18.224 64.7748 18.9167 64.4988 19.5937C64.478 19.651 64.4936 19.7031 64.5405 19.7448C64.5873 19.7812 64.6394 19.7917 64.6967 19.7604C65.2488 19.4583 65.7905 19.1302 66.3061 18.7656C67.2488 18.2187 67.8634 17.4167 68.1551 16.3646C68.1915 16.099 68.1915 15.8333 68.1551 15.5625C68.0613 14.8646 68.0613 14.1719 68.1551 13.474C68.1811 13.4375 68.1811 13.3958 68.1551 13.3594C68.2957 12.5156 68.379 11.6771 68.478 10.8333L68.6863 8.91146C68.6863 9.5 68.7853 10.0885 68.8842 10.6771C69.0509 11.8281 69.2905 12.9687 69.5561 14.0885C69.5821 14.3542 69.5821 14.6146 69.5561 14.875C69.5561 15.099 69.5561 15.3125 69.5561 15.5521C69.5092 16.0677 69.5405 16.5729 69.6551 17.0781C69.7801 17.5729 69.9728 18.0417 70.228 18.4844C70.7853 19.4271 71.4467 20.2969 72.2176 21.0833C72.2176 21.1771 72.4259 21.0833 72.4259 20.9844C72.353 20.401 72.254 19.8281 72.1186 19.2552ZM52.228 9.42708C51.5717 10.375 50.7384 11.1198 49.7228 11.6615C48.7957 12.0677 47.7488 12.224 46.9207 12.7135C47.103 12.3802 47.2384 12.026 47.3425 11.6615C47.5405 11.0937 47.8113 10.5729 48.1655 10.0885C48.5665 9.61979 49.03 9.23958 49.5665 8.9375C50.6134 8.39062 51.7228 8.16145 52.8998 8.25C51.6082 8.60416 50.504 9.27083 49.5978 10.2604C49.4832 10.3854 49.6811 10.5677 49.7905 10.4427C50.5769 9.61458 51.5092 9.03646 52.5925 8.69791L53.0717 8.54687C52.7696 8.80729 52.4884 9.09375 52.228 9.40104V9.42708ZM55.4207 19.3958C55.4207 19.5208 55.3113 19.651 55.254 19.776C54.7071 20.9635 53.8217 21.7969 52.6082 22.276C52.2748 22.4271 51.9259 22.5417 51.5717 22.625C50.7019 22.8437 49.8165 22.9948 48.9259 23.0729C49.3582 22.7552 49.7175 22.3646 50.004 21.9115C50.3217 21.3802 50.7228 20.9115 51.1915 20.5052C51.6915 20.1302 52.2332 19.8333 52.8165 19.6094C53.78 19.25 54.7123 18.8281 55.6186 18.3437C54.7019 19.5156 53.5821 20.4531 52.2696 21.151C52.1186 21.2344 52.2696 21.4479 52.4103 21.375C52.7332 21.2187 53.0405 21.0417 53.3373 20.8437C54.228 20.2344 55.0248 19.5104 55.7176 18.6823C55.629 18.9167 55.5353 19.1458 55.4207 19.3698V19.3958ZM58.6446 18.2187C58.6863 18.6042 58.6863 18.9948 58.6446 19.3802C58.4884 20.375 58.1134 21.2812 57.5248 22.0937C57.2488 22.4479 56.9467 22.7865 56.629 23.1042C56.9363 22.5677 57.2175 22.0208 57.4832 21.474C57.9832 20.4167 58.3686 19.3229 58.6446 18.1875V18.2187ZM56.8113 19.9427C57.2436 19.2708 57.9311 18.7656 58.4051 18.1354C58.2957 18.526 58.1811 18.9323 58.0405 19.3385C57.478 20.8646 56.78 22.3177 55.9415 23.7083C55.9415 23.5104 55.9415 23.2969 55.9415 23.1042C55.8946 21.9583 56.1811 20.9062 56.8113 19.9427ZM58.9103 18.3177C59.0196 18.6927 59.1186 19.0885 59.2019 19.4792C59.379 20.6146 59.0873 21.6198 58.3373 22.4844C57.6342 23.276 56.8217 23.9271 55.8998 24.4375C56.1811 23.9115 56.5353 23.4427 56.9623 23.0312C57.5925 22.4115 58.0717 21.6875 58.4103 20.8698C58.7488 20.0521 58.9155 19.2031 58.9103 18.3177ZM67.7748 16.4219C67.655 16.9219 67.4155 17.349 67.0457 17.7135C66.3738 18.3854 65.6186 18.9479 64.7801 19.3958C64.9103 19.0312 65.0144 18.6562 65.0873 18.276C65.155 17.9531 65.228 17.6302 65.3113 17.3177C65.353 17.1667 65.4051 17.0156 65.4676 16.8698C65.6498 16.4115 65.8998 15.9948 66.2228 15.6198C66.6394 15.1406 67.1603 14.7344 67.5405 14.2187C67.3738 14.9844 67.0925 15.7031 66.6967 16.3802C66.5873 16.5469 66.4728 16.7292 66.3478 16.8854C66.2228 17.0365 66.4311 17.1927 66.5457 17.0677C66.7748 16.7656 66.978 16.4427 67.1446 16.099C67.3269 15.7708 67.4676 15.4271 67.5821 15.0729L67.7071 14.625V14.974C67.7176 15.224 67.7176 15.4687 67.7071 15.7187C67.754 15.9479 67.7748 16.1823 67.7748 16.4219ZM71.0248 19.5937C70.3217 18.776 69.8582 17.8385 69.6238 16.7865C69.5613 16.2292 69.5613 15.6719 69.6238 15.1146C69.8686 16.0521 70.1186 16.9635 70.379 17.8542C70.379 18.0052 70.6759 17.9375 70.6342 17.7656C70.3373 16.7552 70.0457 15.7344 69.7905 14.7083C69.8998 14.8646 70.0144 15.0052 70.1446 15.1406C70.4936 15.5312 70.8009 15.9531 71.0665 16.4062C71.3009 16.8906 71.4832 17.3906 71.6134 17.9062C71.8165 18.8333 71.9103 19.7708 71.8946 20.7135C71.5873 20.3802 71.2644 20 71.0248 19.5937Z" fill="white"/>
</g>
<path d="M51.6707 80.4479C51.0353 80.2864 50.4832 79.9739 50.0144 79.5208C49.5926 79.0989 49.129 78.7343 48.6134 78.427C47.379 77.9375 46.103 77.6458 44.7801 77.5416C44.0301 77.4375 43.3061 77.2395 42.6082 76.9531H42.5353C41.6134 76.177 40.754 75.3385 39.9572 74.4375C39.2019 73.5833 38.4624 72.6823 37.7332 71.802C37.7124 71.7448 37.6759 71.7135 37.6186 71.7031L36.8374 70.7916C37.8217 71.401 38.8842 71.8333 40.0144 72.0937L42.7176 73.1041C43.6238 73.375 44.4832 73.7447 45.2957 74.2291C45.2853 74.2812 45.2853 74.3333 45.2957 74.3802C45.2853 74.4375 45.2853 74.4948 45.2957 74.552V74.651C45.3478 74.7031 45.4103 74.7448 45.478 74.776H45.5769C45.6499 74.7968 45.728 74.7968 45.8009 74.776C45.853 74.7552 45.8999 74.7135 45.9259 74.6614C45.9728 74.6302 46.004 74.5885 46.0249 74.5364C46.0405 74.4791 46.0405 74.427 46.0249 74.3698C46.0405 74.3177 46.0405 74.2656 46.0249 74.2135V74.1145C45.978 74.0573 45.9259 74.0156 45.8582 73.9895H45.5353C44.7228 73.4948 43.8582 73.1093 42.9415 72.8385L41.5405 72.3177C42.1238 72.3906 42.7072 72.427 43.2957 72.4323C44.0092 72.4323 44.6915 72.4323 45.4363 72.3177C45.5978 72.4895 45.7801 72.5052 45.9728 72.375C46.1655 72.2448 46.2176 72.0729 46.1238 71.8541C46.0144 71.6614 45.853 71.5937 45.6342 71.651C45.4207 71.7031 45.3113 71.8437 45.3113 72.0677C43.7332 72.2343 42.1655 72.1823 40.603 71.9114C41.0144 71.8958 41.4155 71.8333 41.8061 71.7291C42.7749 71.4687 43.6394 71.0156 44.4155 70.3802C44.5874 70.5156 44.7644 70.5104 44.9311 70.3698C45.103 70.2291 45.1394 70.0625 45.0457 69.8645C44.9988 69.7656 44.9259 69.6927 44.8217 69.651C44.7228 69.6093 44.6186 69.6093 44.5144 69.6458C44.4155 69.6875 44.3374 69.7552 44.2905 69.8541C44.2384 69.9479 44.228 70.052 44.2592 70.1562C43.504 70.7552 42.6499 71.1614 41.7124 71.3802C40.4363 71.7343 39.1915 71.6406 37.9832 71.0989C36.1499 70.2812 34.9467 68.6979 33.4051 67.4635C32.853 67.026 32.2749 66.6302 31.6655 66.2708C33.3738 66.875 35.129 67.151 36.9363 67.0989C38.0249 67.0989 39.103 66.901 40.1863 66.7864C40.728 66.7864 41.2749 66.677 41.8061 66.6458C43.2957 66.5625 44.3738 67.8125 45.5197 68.5416C46.0405 68.875 46.6082 69.0989 47.2124 69.2187C47.8634 69.3385 48.5144 69.4062 49.1759 69.4114C49.5874 69.4323 49.9936 69.4791 50.3947 69.552H50.8426C50.8426 69.552 51.3894 69.552 51.3582 69.552C51.3113 69.4739 51.254 69.3958 51.1915 69.3281C50.8426 68.9635 50.5249 68.5781 50.2384 68.1614C49.8842 67.6302 49.4519 67.1614 48.9519 66.7604C47.7801 65.9218 46.478 65.5625 45.0457 65.6927C44.1863 65.7604 43.3634 65.9479 42.5665 66.2708C42.1186 66.2708 41.6967 66.2708 41.2644 66.3385C40.8269 66.4114 40.0978 66.4531 39.5249 66.5208C40.254 66.2395 40.9519 65.8906 41.6134 65.4687C41.9311 65.1875 42.2957 64.9895 42.7072 64.8645C43.1238 64.7864 43.5405 64.75 43.9676 64.7552C44.8061 64.8385 45.6394 64.8072 46.4728 64.6666C47.6863 64.25 48.7436 63.5729 49.6394 62.6458C49.8842 62.4114 50.1499 62.1927 50.4207 61.9895C50.5613 61.8854 50.7019 61.7968 50.8582 61.7187C50.9572 61.7187 51.2072 61.6093 51.2228 61.4687C51.2176 61.4114 51.1967 61.3698 51.1499 61.3437C51.0665 61.2552 50.8269 61.3437 50.7019 61.3437L50.1863 61.2708L49.1915 61.0625C48.4884 60.927 47.7905 60.927 47.0874 61.0625C45.7228 61.2968 44.5509 61.9114 43.5717 62.901C43.254 63.2395 42.9519 63.5989 42.6759 63.9791C42.5665 64.1354 42.4936 64.3333 42.3686 64.4739C42.1863 64.677 41.9832 64.8541 41.754 65.0052C41.3061 65.3333 40.8426 65.6302 40.353 65.8906C39.7749 66.1927 39.1811 66.4427 38.5613 66.6354C38.5353 66.6302 38.5144 66.6302 38.4884 66.6354H37.7072C36.5301 66.7187 35.3634 66.6718 34.2019 66.4948C33.7853 66.4114 33.3478 66.3229 32.9311 66.2135C32.5092 66.0989 30.4363 65.4114 30.2384 65.3281L29.7644 65.0625L29.1759 65.0052L28.4051 64.6823C29.8061 64.8229 31.2905 64.4583 32.7332 64.4583C32.754 64.5156 32.7905 64.5573 32.8426 64.5833C32.879 64.625 32.9207 64.6562 32.9728 64.6666C33.0249 64.6822 33.0822 64.6822 33.1394 64.6666C33.1915 64.6822 33.2436 64.6822 33.2905 64.6666H33.3894C33.4519 64.6197 33.4936 64.5573 33.5144 64.4843V64.3854C33.5301 64.3125 33.5301 64.2395 33.5144 64.1614C33.4988 64.1093 33.4624 64.0677 33.4207 64.0364C33.379 63.9948 33.3322 63.9687 33.2801 63.9531C33.228 63.9375 33.1759 63.9375 33.1238 63.9531H32.8582C32.8009 64 32.7644 64.0625 32.7488 64.1354C31.7957 64.1354 30.8426 64.3177 29.9467 64.375C30.1759 64.2812 30.3894 64.1562 30.5874 64.0104C30.9832 63.6823 31.4051 63.401 31.8478 63.151H32.254C32.3113 63.1041 32.3478 63.0416 32.3686 62.9687V62.8698C32.3894 62.7968 32.3894 62.7239 32.3686 62.6458C32.3478 62.5937 32.3061 62.552 32.254 62.5208C32.2228 62.4791 32.1811 62.4531 32.129 62.4375C32.0717 62.4218 32.0197 62.4218 31.9624 62.4375C31.9103 62.4218 31.8582 62.4218 31.8061 62.4375H31.7124C31.6499 62.4843 31.6082 62.5468 31.5822 62.6198V62.7187C31.5717 62.7916 31.5717 62.8645 31.5822 62.9427C31.2072 63.1666 30.853 63.4166 30.5197 63.6979C30.2592 63.8958 29.978 64.052 29.6811 64.177C29.4415 64.276 29.1915 64.3437 28.9363 64.375C28.6551 64.375 28.379 64.375 28.0978 64.375C28.004 64.3802 27.9103 64.3802 27.8165 64.375C27.2436 64.2343 26.6967 64.0104 26.1238 63.8125C25.5457 63.6145 24.9884 63.4323 24.4103 63.2656L23.8374 63.125L23.1811 62.927C21.9207 62.5885 20.6447 62.3385 19.3582 62.1302L17.7749 61.9323C18.2488 61.875 18.7124 61.7864 19.1759 61.6666C20.3374 61.3177 21.4103 60.776 22.3842 60.052C22.9728 59.6406 23.5457 59.2656 24.1603 58.9114C25.3113 58.6198 26.4572 58.6198 27.6082 58.9114C28.2072 59.0781 28.7749 59.3177 29.3165 59.6302C29.853 59.9791 30.353 60.3645 30.8269 60.7916C31.2384 61.1562 31.7019 61.4166 32.228 61.5677C33.3061 61.7916 34.3686 61.7448 35.4207 61.427C36.0457 61.2916 36.6134 61.0312 37.129 60.6562C37.129 60.6562 37.2019 60.6562 37.129 60.5573C36.9936 60.5208 36.8582 60.5208 36.7228 60.5573C36.1342 60.5416 35.5874 60.375 35.0874 60.0625C34.5457 59.7187 33.9728 59.4531 33.3634 59.2656C32.7488 59.0833 32.129 59.0468 31.4988 59.1666C31.0092 59.25 30.5197 59.4062 30.0301 59.4583C29.6238 59.4531 29.254 59.3281 28.9207 59.0937C28.5353 58.9166 28.1394 58.7604 27.7332 58.6302C27.1186 58.4635 26.4936 58.3802 25.853 58.3802C25.5457 58.3593 25.2384 58.3593 24.9311 58.3802L25.478 58.125C26.0509 57.8802 26.6394 57.6718 27.2436 57.5104C27.4832 57.4114 27.7384 57.3541 27.9988 57.3385C28.3009 57.3385 28.5978 57.3698 28.8947 57.4375C29.0301 57.4843 29.1603 57.5416 29.2853 57.6093L29.8061 57.8437C30.3113 58.052 30.8426 58.151 31.3894 58.1406C32.5092 58.1093 33.5874 57.8593 34.6082 57.3958C35.2019 57.1406 35.7697 56.8437 36.3165 56.5C36.3738 56.4635 36.4155 56.4166 36.4467 56.3593C36.4363 56.2812 36.3999 56.2343 36.3322 56.2031C36.1759 56.2031 36.0092 56.2031 35.8582 56.1198C35.6707 56.052 35.4936 55.9635 35.3217 55.8541L34.4988 55.4895C33.9572 55.2656 33.3999 55.1458 32.8165 55.1354C31.2957 55.1927 29.9207 55.6718 28.6967 56.5833C28.5561 56.6823 28.4311 56.8073 28.2905 56.9218C28.1603 56.9895 28.0197 57.0364 27.8738 57.0468L27.2436 57.1979C26.8217 57.3125 26.4051 57.4427 25.9936 57.5937C25.5665 57.7552 25.1447 57.9375 24.7332 58.1406C24.0978 58.4583 23.4884 58.8177 22.8999 59.2239C21.8947 60 20.8009 60.6198 19.6238 61.0885C18.853 61.3541 18.0561 61.5104 17.2436 61.552L17.129 61.7343C17.129 61.8333 17.0301 61.9166 16.9884 62L17.7176 62.0833L18.6863 62.2135C19.8999 62.7448 20.8061 63.5989 21.4155 64.7812C21.4624 65.1614 21.4624 65.5364 21.4155 65.9166C21.4155 66.3125 21.3009 66.7031 21.2749 67.0989C21.2436 67.8385 21.3634 68.5573 21.6394 69.2448C21.5353 69.3854 21.5353 69.526 21.6394 69.6666C21.6863 69.7708 21.7644 69.8489 21.8738 69.8854C21.9832 69.927 22.0926 69.927 22.2019 69.875C22.3061 69.8281 22.379 69.75 22.4207 69.6406C22.4624 69.5312 22.4572 69.4218 22.4103 69.3177C22.2957 69.1979 22.1603 69.1666 22.004 69.2187C21.7436 68.5208 21.6447 67.7968 21.6967 67.0573C21.7644 66.6875 21.8113 66.3177 21.8374 65.9479V65.5364C22.1863 66.2708 22.478 67.0416 22.7592 67.7708H22.6603C22.603 67.8125 22.5613 67.8698 22.5353 67.9375V68.052C22.5249 68.1198 22.5249 68.1927 22.5353 68.2604C22.5613 68.3177 22.5978 68.3645 22.6499 68.401L22.7749 68.4843C22.8322 68.5 22.8842 68.5 22.9415 68.4843C22.9936 68.5104 23.0457 68.5104 23.0978 68.4843H23.1967C23.254 68.4427 23.2957 68.3854 23.3217 68.3177V68.2083C23.3322 68.1354 23.3322 68.0677 23.3217 67.9948C23.3009 67.9427 23.2644 67.901 23.2228 67.8698L23.0822 67.7708C22.8217 67.0156 22.5144 66.276 22.1707 65.552C23.0874 66.4583 23.7019 67.5312 24.0197 68.7812C23.9311 68.8333 23.879 68.9062 23.8478 69.0052C23.8217 69.1041 23.8322 69.1979 23.879 69.2864C24.0144 69.4948 24.1915 69.5468 24.4103 69.4427C24.6342 69.3385 24.7124 69.1718 24.6394 68.9375C24.5769 68.7708 24.4624 68.6927 24.2853 68.6979C23.8894 67.1666 23.0822 65.8906 21.8634 64.8802C21.853 64.8437 21.8269 64.8125 21.7957 64.7968C21.2853 63.8489 20.5717 63.0833 19.6655 62.5052C20.8009 62.6875 21.9207 62.9114 23.0249 63.1927L23.8947 63.4323C24.0092 63.4323 24.2019 63.8281 24.2749 63.927L24.6811 64.5156C24.9363 64.9062 25.1655 65.3073 25.379 65.7239C25.6915 66.3125 25.9624 66.9218 26.2072 67.5468C26.2801 67.7968 26.3426 68.0468 26.3894 68.302C26.4884 68.651 26.6082 68.9843 26.754 69.3177C27.3061 71.5677 27.5769 73.8593 27.5665 76.177C27.5405 76.2135 27.5405 76.2448 27.5665 76.276C27.5457 76.8541 27.3894 77.3854 27.0874 77.8802C26.8165 78.3698 26.603 78.8854 26.4415 79.4218C26.1551 80.4895 26.0769 81.5677 26.2072 82.6666C26.2957 83.3385 26.4207 84 26.5822 84.6562C26.5822 84.7552 26.7801 84.8125 26.8374 84.6562C27.4311 83.6458 27.8947 82.5781 28.2384 81.4583C28.3842 80.901 28.4572 80.3333 28.4624 79.7604C28.4363 79.2083 28.3426 78.6666 28.1655 78.1458C27.978 77.6562 27.8322 77.1562 27.7332 76.6406C27.754 75.3958 27.7124 74.151 27.6082 72.9062C27.6082 72.2916 27.4676 71.6614 27.353 71.026L28.0665 72.9635C28.379 73.8229 28.6863 74.677 29.0353 75.5208C29.0144 75.5573 29.0144 75.5937 29.0353 75.6302C29.4832 76.5729 29.3269 77.6979 29.7332 78.651C30.3061 79.6718 31.1499 80.3489 32.2697 80.6875C32.9051 80.927 33.5457 81.1354 34.2019 81.302C34.2697 81.3281 34.3269 81.3125 34.3686 81.25C34.4103 81.1927 34.4051 81.1354 34.3582 81.0781C33.8061 80.2343 33.3061 79.3593 32.8582 78.4531C32.5665 78.0364 32.2124 77.6718 31.8061 77.3593C31.4155 77.052 30.9988 76.7864 30.5613 76.5573C30.0874 76.3073 29.6811 75.9687 29.3426 75.5468C29.3426 75.4479 29.2592 75.3489 29.2332 75.2656C28.5717 73.7083 28.0249 72.0937 27.4519 70.5104C27.2697 70.0468 27.103 69.5677 26.9207 69.1041C26.9207 68.8645 26.7957 68.625 26.7228 68.401C27.3426 69.1198 28.0769 69.6823 28.9207 70.0989C30.3217 71.125 30.9832 72.9062 32.2697 74.0885C32.1915 74.2135 32.1915 74.3385 32.2697 74.4687C32.3999 74.677 32.5769 74.7291 32.8009 74.625C33.0249 74.5208 33.103 74.3489 33.0249 74.1145C32.9832 74.0104 32.9103 73.9375 32.8061 73.8958C32.7019 73.8541 32.5978 73.8593 32.4936 73.9062C31.5561 72.8593 30.6811 71.7604 29.8634 70.6198C30.7332 70.9948 31.5561 71.4635 32.3269 72.026V72.1354C32.3113 72.2083 32.3113 72.276 32.3269 72.3489C32.3478 72.401 32.379 72.4479 32.4259 72.4895C32.4624 72.5312 32.5092 72.5573 32.5665 72.5729C32.6134 72.5885 32.6655 72.5885 32.7176 72.5729C32.7749 72.5833 32.8322 72.5833 32.8842 72.5729H32.9832C33.0405 72.5208 33.0769 72.4635 33.0978 72.3906V72.2916C33.1238 72.2187 33.1238 72.1406 33.0978 72.0677C33.0717 72.0104 33.0353 71.9687 32.9832 71.9427C32.9467 71.901 32.9051 71.8645 32.8582 71.8437C32.8009 71.8281 32.7488 71.8281 32.6915 71.8437C32.6447 71.8281 32.5978 71.8281 32.5509 71.8437C31.8165 71.2864 31.0353 70.8177 30.1967 70.4375H30.4051C30.8113 70.4479 31.2124 70.4843 31.6134 70.552C32.3582 70.6875 33.0665 70.9479 33.728 71.3229C33.7019 71.4114 33.7019 71.5 33.728 71.5885C33.7749 71.6979 33.853 71.7708 33.9624 71.8125C34.0717 71.8541 34.1811 71.8489 34.2853 71.802C34.3947 71.75 34.4676 71.6718 34.5092 71.5625C34.5509 71.4531 34.5457 71.3437 34.4988 71.2395C34.4415 71.1093 34.3478 71.0312 34.2124 71.0052C34.0769 70.9739 33.9572 71.0052 33.853 71.0989C33.2124 70.7395 32.5301 70.4843 31.8061 70.3385C31.4155 70.2604 31.0197 70.2083 30.6186 70.1875C30.2176 70.2083 29.8374 70.1406 29.4676 69.9739C29.4103 69.9218 29.3478 69.9218 29.2853 69.9739L29.0353 69.8333C28.2801 69.5052 27.6186 69.0364 27.0613 68.4323C26.6186 67.7343 26.228 67.0156 25.8842 66.2708C25.4415 65.2708 24.8894 64.3333 24.2332 63.4635C25.4884 63.8281 26.7176 64.2552 27.9259 64.7552C29.4936 65.3645 30.978 66.1302 32.3842 67.0573C33.3947 67.7708 34.3269 68.5729 35.1811 69.4687C35.6186 69.9166 36.0405 70.3802 36.4572 70.875C36.7019 71.1198 36.9155 71.3854 37.103 71.6718C37.3009 71.9687 37.4832 72.2708 37.6499 72.5885C37.7905 72.8802 37.8322 73.2187 37.9415 73.526C38.3217 74.6093 38.7436 75.6875 39.2176 76.7395C39.2853 76.9114 39.3738 77.0781 39.4415 77.2343C39.4415 77.9635 39.3738 78.6354 39.4415 79.4375C39.4415 80.0625 39.5874 80.651 39.8738 81.2031C40.5144 82.276 41.4103 83.0468 42.5665 83.5208C43.2905 83.8437 44.0301 84.1145 44.7905 84.3333C44.9051 84.3333 45.0457 84.2083 44.9311 84.0989C44.5822 83.6354 44.3894 83.1198 44.3582 82.5364C44.2488 81.9583 44.0509 81.4114 43.7697 80.8958C43.2072 79.8593 42.4207 79.0468 41.3999 78.4531C40.7957 78.1562 40.2853 77.7448 39.8634 77.2187C39.4415 76.3645 39.0769 75.4895 38.7436 74.6093C38.4884 73.9479 38.2644 73.2864 38.0249 72.6145L39.2019 74.0156C40.2228 75.2448 41.3426 76.3645 42.5665 77.3854C43.1603 78.5364 43.978 79.4948 45.0144 80.2656C46.2853 81.0208 47.6603 81.3437 49.1342 81.2343C50.0092 81.1927 50.8842 81.1041 51.754 80.9687C51.8426 80.9583 51.8738 80.9114 51.853 80.8281C51.978 80.7656 52.0092 80.6718 51.9467 80.5468C51.8894 80.4166 51.7957 80.3854 51.6707 80.4479ZM43.7853 66.6198C44.5301 66.8593 45.2436 67.1823 45.9103 67.5885C46.3634 67.8593 46.8322 68.0989 47.3113 68.302C47.8269 68.4948 48.353 68.6354 48.8947 68.7239C49.3894 68.8177 49.8582 68.9948 50.2957 69.2448C49.3842 69.0781 48.4051 69.1458 47.4936 68.9948C46.3374 68.6718 45.3061 68.1093 44.4155 67.3073C44.0717 67.052 43.7124 66.8229 43.3374 66.6198H43.7853ZM45.1863 61.9427C45.7644 61.5885 46.3842 61.3333 47.0457 61.1875C47.754 61.0364 48.4676 61.0364 49.1759 61.1875L50.3686 61.427C49.7853 61.552 49.1967 61.6354 48.603 61.677C47.8999 61.776 47.2019 61.9166 46.5144 62.0989C45.2957 62.427 44.1811 62.9739 43.1811 63.7395C43.7384 63.0468 44.3894 62.4531 45.1394 61.9739L45.1863 61.9427ZM31.5144 59.3906C32.1759 59.2552 32.8217 59.2968 33.4624 59.5156C33.7801 59.6198 34.0874 59.75 34.3842 59.9114C34.6811 60.052 34.9467 60.2343 35.228 60.3854C35.4155 60.4843 35.6082 60.5625 35.8113 60.625C34.9988 60.5208 34.2124 60.3229 33.4467 60.0208C32.5301 59.7604 31.5978 59.6041 30.6447 59.5573C30.9676 59.5312 31.2332 59.4583 31.5144 59.3906ZM31.0353 55.6979C31.5509 55.5208 32.0769 55.427 32.6186 55.401C33.2176 55.3854 33.7905 55.4895 34.3426 55.7239L35.1967 56.1041L35.504 56.276C35.2853 56.302 35.0665 56.302 34.8478 56.276C34.5665 56.25 34.2905 56.2031 34.0197 56.1354C33.3947 56.0104 32.7644 55.9323 32.129 55.9114C31.1238 55.9323 30.1603 56.1354 29.2332 56.526C29.7957 56.177 30.3999 55.9062 31.0353 55.7239V55.6979ZM27.2124 78.901C27.103 79.4948 27.004 80.0833 26.9207 80.6875C26.8374 81.2916 26.7801 81.8906 26.7384 82.5104C26.6967 83.1302 26.7384 83.3385 26.7384 83.7604C26.5301 82.8906 26.4155 82.0156 26.3999 81.1198C26.3999 80.552 26.4624 79.9895 26.5822 79.4375C26.7332 78.8854 26.9519 78.3645 27.228 77.8645C27.3269 77.6823 27.4259 77.4843 27.5092 77.2864C27.4572 77.8333 27.3634 78.375 27.2124 78.901ZM29.8478 77.177C30.0457 77.4895 30.2592 77.7864 30.4936 78.0729C30.7436 78.4166 31.0249 78.7343 31.3322 79.0312C31.7019 79.4062 32.0978 79.7448 32.5249 80.052C32.7488 80.2083 32.9572 80.3645 33.1967 80.5052C33.3947 80.6198 33.5769 80.75 33.754 80.8958C32.8009 80.651 31.9051 80.2708 31.0665 79.7604C30.5926 79.4791 30.2332 79.0989 29.9884 78.6093C29.8113 78.1562 29.7019 77.6875 29.6499 77.2031C29.6603 77.0781 29.6603 76.9531 29.6499 76.8229L29.8478 77.177ZM39.6499 78.2864C39.8738 79.2343 40.2801 80.1041 40.8634 80.8854C41.4467 81.6666 42.1655 82.2968 43.0144 82.776C43.5301 83.0833 43.9988 83.4531 44.4155 83.8854C43.3165 83.5989 42.3061 83.1302 41.3738 82.4843C40.3686 81.7812 39.8113 80.8125 39.7072 79.5885C39.6499 79.1562 39.6655 78.7187 39.6811 78.2864H39.6499Z" fill="#764904"/>
<path d="M127.384 109.115L127.249 109.016C127.707 108.453 128.217 107.937 128.775 107.469L128.452 107.276C127.889 107.755 127.379 108.286 126.91 108.859C126.546 108.729 126.181 108.729 125.816 108.859C125.764 108.839 125.712 108.839 125.665 108.859C124.535 109.474 123.837 110.411 123.561 111.667C123.306 113.099 123.415 114.505 123.884 115.88C123.884 116.021 124.15 116.104 124.233 115.88C125.025 114.641 125.962 113.521 127.035 112.526C127.764 111.698 128.619 110.036 127.384 109.115Z" fill="#764904"/>
<path d="M124.738 108.089C124.775 108.062 124.796 108.031 124.811 107.99C125.218 107.823 125.634 107.651 126.056 107.51C126.478 107.37 127.202 107.12 127.79 106.953L127.249 106.714L126.884 106.823C124.546 107.589 122.332 108.62 120.244 109.927C120.244 109.927 120.145 109.828 120.046 109.927C119.244 110.182 118.421 110.323 117.582 110.349C117.009 110.115 116.457 109.833 115.931 109.505C115.473 109.203 114.978 109.005 114.447 108.901C113.358 108.771 112.369 109.021 111.473 109.646C111.421 109.682 111.395 109.734 111.389 109.802C111.363 109.849 111.358 109.901 111.379 109.958C111.405 110.01 111.447 110.042 111.504 110.052C112.051 110.26 112.514 110.583 112.905 111.021C113.332 111.427 113.837 111.698 114.415 111.823C114.978 111.922 115.514 111.844 116.025 111.583C116.619 111.297 117.192 110.969 117.738 110.599C118.322 110.573 118.9 110.49 119.473 110.359L118.999 110.682C117.806 111.531 116.692 112.469 115.65 113.495L114.78 113.818L114.317 114C114.228 114.031 114.134 114.062 114.04 114.083C113.77 114.042 113.514 113.953 113.28 113.818C113.056 113.677 112.874 113.495 112.65 113.354C112.238 113.13 111.801 113.047 111.337 113.099C110.348 113.307 109.509 113.771 108.817 114.505C108.744 114.557 108.723 114.63 108.749 114.719C108.775 114.802 108.837 114.849 108.926 114.854C109.395 115.005 109.822 115.24 110.202 115.557C110.598 115.792 111.03 115.885 111.488 115.839C111.936 115.771 112.343 115.609 112.707 115.344L114.108 114.505C114.212 114.49 114.317 114.458 114.415 114.417L114.936 114.224H115.02C113.983 115.266 113.014 116.365 112.103 117.521L111.869 117.828C111.827 117.818 111.785 117.818 111.744 117.828C111.202 118.219 110.624 118.552 110.02 118.828C109.301 118.693 108.645 118.406 108.056 117.969C107.483 117.646 106.869 117.552 106.223 117.687C104.822 118.052 104.025 119.391 102.863 120.172C102.749 120.172 102.723 120.495 102.863 120.526L104.639 120.734C105.207 120.812 105.77 120.812 106.337 120.734C106.884 120.661 107.4 120.474 107.874 120.187C108.462 119.88 109.04 119.542 109.629 119.219C110.145 119.01 110.645 118.76 111.124 118.474C110.483 119.344 109.853 120.229 109.249 121.13C108.619 121.661 107.848 122.083 107.218 122.531C106.525 122.984 105.921 123.536 105.41 124.187C104.41 125.63 103.827 127.229 103.66 128.974C103.52 130.016 103.478 131.068 103.436 132.104C103.436 132.182 103.462 132.234 103.525 132.276C103.587 132.318 103.65 132.323 103.718 132.286C105.259 131.458 106.619 130.391 107.79 129.089C108.343 128.427 108.744 127.682 108.983 126.854C109.186 126.026 109.285 125.182 109.275 124.328C109.249 123.38 109.343 122.443 109.572 121.521C109.587 121.484 109.587 121.448 109.572 121.411C109.582 121.38 109.582 121.354 109.572 121.323C110.171 120.427 110.801 119.542 111.447 118.672C112.452 117.318 113.535 116.026 114.697 114.797C114.165 115.891 113.733 117.021 113.41 118.193C113.348 118.208 113.311 118.245 113.296 118.307C112.947 119.26 112.598 120.203 112.317 121.115C112.04 121.943 111.9 122.797 111.895 123.672C111.983 124.526 112.254 125.318 112.697 126.052C113.145 126.781 113.728 127.385 114.447 127.854C115.259 128.49 116.02 129.193 116.712 129.958C116.853 130.125 117.061 129.958 117.051 129.792C116.936 128.948 116.869 128.094 116.837 127.234C116.848 126.458 116.806 125.677 116.712 124.906C116.322 123.448 115.702 122.094 114.853 120.849C114.431 120.052 114.103 119.219 113.858 118.349C114.28 116.807 114.874 115.333 115.634 113.927L115.858 113.729C115.915 113.714 115.947 113.677 115.957 113.62C116.692 112.922 117.462 112.266 118.27 111.651C119.962 110.365 121.785 109.286 123.733 108.427C122.254 109.854 121.192 111.542 120.535 113.495C120.442 113.542 120.415 113.62 120.452 113.719C119.488 115.417 118.113 116.974 117.79 118.969C117.676 119.646 117.723 120.318 117.931 120.974C118.327 122.057 118.947 122.99 119.78 123.781C120.603 124.526 121.369 125.328 122.077 126.182C122.192 126.349 122.442 126.182 122.4 126C121.66 122.573 123.421 118.979 122.16 115.656C121.895 114.896 121.473 114.24 120.9 113.677C121.348 112.359 121.999 111.151 122.848 110.052C123.4 109.323 124.03 108.667 124.738 108.089Z" fill="#764904"/>
<path d="M131.254 112.891L130.218 111.625C130.457 110.859 130.785 110.13 131.197 109.438C131.113 109.323 131.014 109.224 130.931 109.125C130.421 109.974 130.025 110.87 129.754 111.823C128.608 113.073 127.931 114.542 127.723 116.229C127.785 117.786 128.15 119.271 128.817 120.677C129.16 121.526 129.421 122.396 129.598 123.292C129.624 123.385 129.686 123.438 129.79 123.438C129.889 123.438 129.952 123.385 129.978 123.292C130.29 122.469 130.728 121.719 131.296 121.047C131.759 120.297 132.113 119.495 132.358 118.646C132.921 117.078 132.843 115.542 132.119 114.042C131.858 113.635 131.572 113.25 131.254 112.891Z" fill="#764904"/>
<path d="M24.1029 113.438C23.9362 113.438 23.8216 113.359 23.7696 113.198C23.2383 111.5 19.3841 91.1303 18.2904 83.9428C18.28 83.8438 18.3008 83.7553 18.3633 83.6771C18.4206 83.599 18.5039 83.5521 18.5977 83.5365C18.8269 83.5053 18.9623 83.6042 19.0039 83.8282C20.0873 91.0053 23.9206 111.302 24.4571 112.974C24.4831 113.068 24.4727 113.156 24.4258 113.245C24.3789 113.333 24.3112 113.391 24.2175 113.422L24.1029 113.438Z" fill="#764904"/>
</svg>
